<?xml version="1.0" encoding="utf-8" ?>
<svg baseProfile="tiny" height="100%" version="1.2" width="100%" xmlns="http://www.w3.org/2000/svg" xmlns:ev="http://www.w3.org/2001/xml-events" xmlns:xlink="http://www.w3.org/1999/xlink"><defs /><line stroke="rgb(0%,0%,0%)" x1="123.56" x2="81.08" y1="4.52" y2="18.08" /><line stroke="rgb(0%,0%,0%)" x1="55.64" x2="14.24" y1="100.04" y2="111.441" /><line stroke="rgb(0%,0%,0%)" x1="41.72" x2="114.92" y1="12.44" y2="152.961" /><path d="M 157.8800048828125,89.95999908447266 C 157.82067108154297,89.73966598510742, 158.50550333658853,90.45716730753581, 157.5240020751953,88.63800048828125" fill="none" stroke="black" /><path d="M 157.5240020751953,88.63800048828125 C 156.5425008138021,86.81883366902669, 153.1171646118164,81.10699844360352, 151.99099731445312,79.04499816894531" fill="none" stroke="black" /><path d="M 151.99099731445312,79.04499816894531 C 150.86483001708984,76.98299789428711, 151.17816416422525,76.84416580200195, 150.76699829101562,76.26599884033203" fill="none" stroke="black" /><path d="M 150.76699829101562,76.26599884033203 C 150.355832417806,75.68783187866211, 150.6424306233724,75.39727274576823, 149.5240020751953,75.57599639892578" fill="none" stroke="black" /><path d="M 149.5240020751953,75.57599639892578 C 148.40557352701822,75.75472005208333, 149.24409357706705,75.92267354329427, 144.05642700195312,77.33834075927734" fill="none" stroke="black" /><path d="M 144.05642700195312,77.33834075927734 C 138.8687604268392,78.75400797526042, 123.07390721638997,82.78622309366862, 118.39800262451172,84.06999969482422" fill="none" stroke="black" /><path d="M 118.39800262451172,84.06999969482422 C 113.72209803263347,85.35377629597981, 116.40049997965495,84.87916692097981, 116.0009994506836,85.04100036621094" fill="none" stroke="black" /><line stroke="rgb(0%,0%,0%)" x1="136.52" x2="104.36" y1="53.0" y2="62.72" /><line stroke="rgb(0%,0%,0%)" x1="125.0" x2="61.639" y1="33.44" y2="50.24" /><line stroke="rgb(0%,0%,0%)" x1="127.04" x2="96.68" y1="108.2" y2="115.76" /><path d="M 114.91999816894531,84.55999755859375 C 114.70371373494466,84.01335016886394, 115.27845764160156,84.58211263020833, 113.6222915649414,81.28011322021484" fill="none" stroke="black" /><path d="M 113.6222915649414,81.28011322021484 C 111.96612548828125,77.97811381022136, 106.51552963256836,67.76960309346516, 104.98300170898438,64.74800109863281" fill="none" stroke="black" /><path d="M 104.98300170898438,64.74800109863281 C 103.45047378540039,61.72639910380045, 104.72079086303711,63.595001220703125, 104.4271240234375,63.1505012512207" fill="none" stroke="black" /><path d="M 104.4271240234375,63.1505012512207 C 104.13345718383789,62.70600128173828, 103.64718500773112,62.834513346354164, 103.22100067138672,62.08100128173828" fill="none" stroke="black" /><path d="M 103.22100067138672,62.08100128173828 C 102.79481633504231,61.3274892171224, 103.29985173543294,61.502929051717125, 101.8700180053711,58.62942886352539" fill="none" stroke="black" /><path d="M 101.8700180053711,58.62942886352539 C 100.44018427530925,55.75592867533366, 95.9860013326009,47.538405100504555, 94.64199829101562,44.84000015258789" fill="none" stroke="black" /><path d="M 94.64199829101562,44.84000015258789 C 93.29799524943034,42.141595204671226, 94.15283330281575,42.965332667032875, 93.80599975585938,42.43899917602539" fill="none" stroke="black" /><path d="M 93.80599975585938,42.43899917602539 C 93.459166208903,41.912665685017906, 92.97970072428386,42.371350606282554, 92.56099700927734,41.68199920654297" fill="none" stroke="black" /><path d="M 92.56099700927734,41.68199920654297 C 92.14229329427083,40.99264780680338, 93.01110967000325,41.754390716552734, 91.29377746582031,38.30289077758789" fill="none" stroke="black" /><path d="M 91.29377746582031,38.30289077758789 C 89.57644526163737,34.85139083862305, 83.97680028279622,24.35881455739339, 82.25700378417969,20.972999572753906" fill="none" stroke="black" /><path d="M 82.25700378417969,20.972999572753906 C 80.53720728556316,17.58718458811442, 81.43016560872395,18.488834063212078, 80.9749984741211,17.988000869750977" fill="none" stroke="black" /><path d="M 80.9749984741211,17.988000869750977 C 80.51983133951823,17.487167676289875, 80.01889673868816,17.83975060780843, 79.5260009765625,17.968000411987305" fill="none" stroke="black" /><path d="M 79.5260009765625,17.968000411987305 C 79.03310521443684,18.09625021616618, 82.43879063924153,17.299333254496258, 78.01762390136719,18.75749969482422" fill="none" stroke="black" /><path d="M 78.01762390136719,18.75749969482422 C 73.59645716349284,20.21566613515218, 57.6886043548584,25.149749120076496, 52.999000549316406,26.716999053955078" fill="none" stroke="black" /><path d="M 52.999000549316406,26.716999053955078 C 48.309396743774414,28.28424898783366, 50.399834314982094,27.920332590738933, 49.880001068115234,28.160999298095703" fill="none" stroke="black" /><line stroke="rgb(0%,0%,0%)" x1="103.04" x2="72.92" y1="62.12" y2="71.36" /><path d="M 137.83999633789062,127.87999725341797 C 136.50066375732422,125.31966400146484, 131.37749989827475,115.68049748738606, 129.8040008544922,112.51799774169922" fill="none" stroke="black" /><path d="M 129.8040008544922,112.51799774169922 C 128.23050181070963,109.35549799601237, 128.84416834513345,109.62899780273438, 128.3990020751953,108.90499877929688" fill="none" stroke="black" /><path d="M 128.3990020751953,108.90499877929688 C 127.95383580525716,108.18099975585938, 127.64551289876302,109.04075876871745, 127.13300323486328,108.17400360107422" fill="none" stroke="black" /><path d="M 127.13300323486328,108.17400360107422 C 126.62049357096355,107.30724843343098, 126.9957784016927,107.04213460286458, 125.32394409179688,103.7044677734375" fill="none" stroke="black" /><path d="M 125.32394409179688,103.7044677734375 C 123.65210978190105,100.36680094401042, 118.6558214823405,91.24258041381836, 117.10199737548828,88.14800262451172" fill="none" stroke="black" /><path d="M 117.10199737548828,88.14800262451172 C 115.54817326863606,85.05342483520508, 116.44499842325847,85.69566853841145, 116.0009994506836,85.13700103759766" fill="none" stroke="black" /><path d="M 116.0009994506836,85.13700103759766 C 115.55700047810872,84.57833353678386, 115.44010925292969,84.600892384847, 114.43800354003906,84.7959976196289" fill="none" stroke="black" /><path d="M 114.43800354003906,84.7959976196289 C 113.43589782714844,84.99110285441081, 114.46753184000652,85.08429845174153, 109.98836517333984,86.30763244628906" fill="none" stroke="black" /><path d="M 109.98836517333984,86.30763244628906 C 105.50919850667317,87.5309664408366, 91.76123046875,90.96710713704427, 87.56300354003906,92.13600158691406" fill="none" stroke="black" /><path d="M 87.56300354003906,92.13600158691406 C 83.36477661132812,93.30489603678386, 85.25967025756836,93.12349955240886, 84.79900360107422,93.32099914550781" fill="none" stroke="black" /><path d="M 71.5999984741211,70.76000213623047 C 70.84095764160156,71.03527323404948, 71.14591979980469,71.2321294148763, 67.0457534790039,72.41162872314453" fill="none" stroke="black" /><path d="M 67.0457534790039,72.41162872314453 C 62.945587158203125,73.59112803141277, 50.76195971171061,76.74910227457683, 46.999000549316406,77.83699798583984" fill="none" stroke="black" /><path d="M 46.999000549316406,77.83699798583984 C 43.2360413869222,78.92489369710286, 45.14466540018717,78.85766983032227, 44.46799850463867,78.93900299072266" fill="none" stroke="black" /><path d="M 44.46799850463867,78.93900299072266 C 43.79133160909017,79.02033615112305, 43.335418701171875,78.84187189737956, 42.93899917602539,78.32499694824219" fill="none" stroke="black" /><path d="M 42.93899917602539,78.32499694824219 C 42.542579650878906,77.80812199910481, 43.750314712524414,78.85991923014323, 42.089481353759766,75.83775329589844" fill="none" stroke="black" /><path d="M 42.089481353759766,75.83775329589844 C 40.42864799499512,72.81558736165364, 34.62141227722168,63.18562698364258, 32.9739990234375,60.19200134277344" fill="none" stroke="black" /><path d="M 32.9739990234375,60.19200134277344 C 31.32658576965332,57.1983757019043, 32.58683490753174,58.39566612243652, 32.20500183105469,57.875999450683594" fill="none" stroke="black" /><path d="M 32.20500183105469,57.875999450683594 C 31.823168754577637,57.356332778930664, 31.823721567789715,56.90142695109049, 30.683000564575195,57.07400131225586" fill="none" stroke="black" /><path d="M 30.683000564575195,57.07400131225586 C 29.542279561360676,57.246575673421226, 30.141175905863445,57.65044593811035, 25.360675811767578,58.91144561767578" fill="none" stroke="black" /><path d="M 25.360675811767578,58.91144561767578 C 20.58017571767171,60.17244529724121, 5.89344596862793,63.68524042765299, 2.0,64.63999938964844" fill="none" stroke="black" /><line stroke="rgb(0%,0%,0%)" x1="48.56" x2="20.359" y1="27.8" y2="37.52" /><line stroke="rgb(0%,0%,0%)" x1="60.32" x2="32.12" y1="49.64" y2="57.68" /><line stroke="rgb(0%,0%,0%)" x1="95.12" x2="68.24" y1="115.16" y2="121.4" /><line stroke="rgb(0%,0%,0%)" x1="83.36" x2="57.08" y1="92.84" y2="100.64" /><line stroke="rgb(0%,0%,0%)" x1="42.8" x2="19.039" y1="78.44" y2="85.039" /><line stroke="rgb(0%,0%,0%)" x1="152.12" x2="128.36" y1="103.34" y2="108.8" /><line stroke="rgb(0%,0%,0%)" x1="117.08" x2="149.36" y1="16.4" y2="75.441" /><line stroke="rgb(0%,0%,0%)" x1="44.48" x2="61.76" y1="79.04" y2="110.72" /><line stroke="rgb(0%,0%,0%)" x1="12.68" x2="30.561" y1="24.92" y2="56.959" /><line stroke="rgb(0%,0%,0%)" x1="168.68" x2="150.68" y1="71.36" y2="76.04" /><line stroke="rgb(0%,0%,0%)" x1="73.52" x2="80.24" y1="2.0" y2="17.6" /><line stroke="rgb(0%,0%,0%)" x1="151.64" x2="137.96" y1="49.64" y2="53.601" /><line stroke="rgb(0%,0%,0%)" x1="140.72" x2="126.8" y1="30.32" y2="34.04" /><line stroke="rgb(0%,0%,0%)" x1="19.04" x2="5.6" y1="37.16" y2="41.36" /></svg>