<?xml version="1.0" encoding="utf-8" ?>
<svg baseProfile="tiny" height="100%" version="1.2" width="100%" xmlns="http://www.w3.org/2000/svg" xmlns:ev="http://www.w3.org/2001/xml-events" xmlns:xlink="http://www.w3.org/1999/xlink"><defs /><path d="M 41.94200134277344,68.9800033569336 C 39.95287768046061,72.30102920532227, 32.84942626953125,81.55778121948242, 30.007259368896484,88.90615844726562" fill="none" stroke="black" /><path d="M 30.007259368896484,88.90615844726562 C 27.16509246826172,96.25453567504883, 25.35437806447347,105.07092539469402, 24.888999938964844,113.07026672363281" fill="none" stroke="black" /><path d="M 24.888999938964844,113.07026672363281 C 24.42362181345622,121.06960805257161, 25.214657465616863,129.44591776529947, 27.214990615844727,136.90220642089844" fill="none" stroke="black" /><path d="M 27.214990615844727,136.90220642089844 C 29.21532376607259,144.3584950764974, 35.27833080291748,154.32369995117188, 36.89099884033203,157.80799865722656" fill="none" stroke="black" /><path d="M 176.5,67.5 C 174.49532318115234,65.08126767476399, 168.65338643391928,56.954280853271484, 164.47193908691406,52.987606048583984" fill="none" stroke="black" /><path d="M 164.47193908691406,52.987606048583984 C 160.29049173990884,49.020931243896484, 156.49586232503256,46.30539194742838, 151.41131591796875,43.699951171875" fill="none" stroke="black" /><path d="M 151.41131591796875,43.699951171875 C 146.32676951090494,41.09451039632162, 140.03213755289713,38.736361821492515, 133.96466064453125,37.35496139526367" fill="none" stroke="black" /><path d="M 133.96466064453125,37.35496139526367 C 127.89718373616536,35.97356096903483, 121.56187438964844,35.337764739990234, 115.00645446777344,35.41154861450195" fill="none" stroke="black" /><path d="M 115.00645446777344,35.41154861450195 C 108.45103454589844,35.48533248901367, 101.46320343017578,36.23407427469889, 94.63214111328125,37.797664642333984" fill="none" stroke="black" /><path d="M 94.63214111328125,37.797664642333984 C 87.80107879638672,39.36125500996908, 80.42937405904134,41.84902318318685, 74.02008056640625,44.7930908203125" fill="none" stroke="black" /><path d="M 74.02008056640625,44.7930908203125 C 67.61078707377116,47.73715845743815, 61.522726694742836,51.43091837565104, 56.1763801574707,55.46207046508789" fill="none" stroke="black" /><path d="M 56.1763801574707,55.46207046508789 C 50.83003362019857,59.49322255452474, 44.31439781188965,66.72701454162598, 41.94200134277344,68.9800033569336" fill="none" stroke="black" /><path d="M 36.89099884033203,157.80799865722656 C 38.94892183939616,160.19085184733072, 44.64531580607096,167.88719177246094, 49.2385368347168,172.10511779785156" fill="none" stroke="black" /><path d="M 49.2385368347168,172.10511779785156 C 53.83175786336263,176.3230438232422, 59.03754742940267,180.0447794596354, 64.45032501220703,183.1155548095703" fill="none" stroke="black" /><path d="M 64.45032501220703,183.1155548095703 C 69.8631025950114,186.18633015950522, 75.7532590230306,188.70932261149088, 81.71520233154297,190.52976989746094" fill="none" stroke="black" /><path d="M 81.71520233154297,190.52976989746094 C 87.67714564005534,192.350217183431, 93.98126602172852,193.57129414876303, 100.22198486328125,194.03823852539062" fill="none" stroke="black" /><path d="M 100.22198486328125,194.03823852539062 C 106.46270370483398,194.50518290201822, 113.0477066040039,194.2644475301107, 119.15951538085938,193.33143615722656" fill="none" stroke="black" /><path d="M 119.15951538085938,193.33143615722656 C 125.27132415771484,192.39842478434244, 131.28376261393228,190.71165974934897, 136.89283752441406,188.44017028808594" fill="none" stroke="black" /><path d="M 136.89283752441406,188.44017028808594 C 142.50191243489584,186.1686808268229, 147.8794377644857,183.1925277709961, 152.81396484375,179.70249938964844" fill="none" stroke="black" /><path d="M 152.81396484375,179.70249938964844 C 157.7484919230143,176.21247100830078, 164.218994140625,169.53374989827475, 166.5,167.5" fill="none" stroke="black" /><path d="M 42.9640007019043,70.03099822998047 C 48.309963862101235,72.54065195719402, 68.63234774271648,80.62016932169597, 75.03977966308594,85.08892059326172" fill="none" stroke="black" /><path d="M 75.03977966308594,85.08892059326172 C 81.4472115834554,89.55767186482747, 80.17584737141927,92.34316762288411, 81.4085922241211,96.843505859375" fill="none" stroke="black" /><path d="M 81.4085922241211,96.843505859375 C 82.64133707682292,101.34384409586589, 82.89184697469075,106.18386840820312, 82.43624877929688,112.09095001220703" fill="none" stroke="black" /><path d="M 82.43624877929688,112.09095001220703 C 81.980650583903,117.99803161621094, 80.38043721516927,127.02319971720378, 78.67500305175781,132.28599548339844" fill="none" stroke="black" /><path d="M 78.67500305175781,132.28599548339844 C 76.96956888834636,137.5487912495931, 79.16764430745442,139.4140571899414, 72.20364379882812,143.667724609375" fill="none" stroke="black" /><path d="M 72.20364379882812,143.667724609375 C 65.23964329020183,147.9213920288086, 42.77644063313803,155.45128743489585, 36.89100000000001,157.80800000000002" fill="none" stroke="black" /><path d="M 166.5,167.5 C 169.26412200927734,163.32672373453775, 179.22063700358072,150.60191853841147, 183.08473205566406,142.46034240722656" fill="none" stroke="black" /><path d="M 183.08473205566406,142.46034240722656 C 186.9488271077474,134.31876627604166, 188.88133239746094,127.04618962605794, 189.6845703125,118.65054321289062" fill="none" stroke="black" /><path d="M 189.6845703125,118.65054321289062 C 190.48780822753906,110.25489679972331, 190.1015879313151,100.61155446370442, 187.90415954589844,92.08646392822266" fill="none" stroke="black" /><path d="M 187.90415954589844,92.08646392822266 C 185.70673116048178,83.56137339274089, 180.35700225830078,70.28789393107097, 176.5,67.5" fill="none" stroke="black" /><path d="M 176.5,67.5 C 172.64299774169922,64.71210606892903, 171.3667246500651,73.65264129638672, 164.76214599609375,75.35910034179688" fill="none" stroke="black" /><path d="M 164.76214599609375,75.35910034179688 C 158.1575673421224,77.06555938720703, 143.64505259195963,76.54477055867513, 136.87252807617188,77.73875427246094" fill="none" stroke="black" /><path d="M 136.87252807617188,77.73875427246094 C 130.10000356038412,78.93273798624675, 128.4126459757487,79.50758234659831, 124.12699890136719,82.52300262451172" fill="none" stroke="black" /><path d="M 124.12699890136719,82.52300262451172 C 119.84135182698567,85.53842290242513, 114.13844807942708,90.63172022501628, 111.15864562988281,95.8312759399414" fill="none" stroke="black" /><path d="M 111.15864562988281,95.8312759399414 C 108.17884318033855,101.03083165486653, 106.50619252522786,108.13691838582356, 106.24818420410156,113.7203369140625" fill="none" stroke="black" /><path d="M 106.24818420410156,113.7203369140625 C 105.99017588297527,119.30375544230144, 107.47496032714844,124.59717559814453, 109.610595703125,129.331787109375" fill="none" stroke="black" /><path d="M 109.610595703125,129.331787109375 C 111.74623107910156,134.06639862060547, 111.46918487548828,137.37962341308594, 119.06199645996094,142.1280059814453" fill="none" stroke="black" /><path d="M 119.06199645996094,142.1280059814453 C 126.6548080444336,146.8763885498047, 147.2611312866211,153.59325018310548, 155.16746520996094,157.82208251953125" fill="none" stroke="black" /><path d="M 155.16746520996094,157.82208251953125 C 163.07379913330078,162.05091485595702, 164.61124420166016,165.88784708658852, 166.5,167.50099999999998" fill="none" stroke="black" /><path d="M 13.244999885559082,227.7550048828125 C 11.83007844289144,207.15343856811523, 6.712971210479736,141.85477447509766, 4.755471229553223,104.1456069946289" fill="none" stroke="black" /><path d="M 4.755471229553223,104.1456069946289 C 2.797971248626709,66.43643951416016, 2.0425785382588706,18.607601165771484, 1.5,1.5" fill="none" stroke="black" /><path d="M 224.64700317382812,215.67999267578125 C 202.57805633544922,218.6181844075521, 127.4669893582662,231.29664103190103, 92.23332214355469,233.30914306640625" fill="none" stroke="black" /><path d="M 92.23332214355469,233.30914306640625 C 56.99965492884318,235.32164510091147, 26.409720261891685,228.68069458007812, 13.244999885559082,227.7550048828125" fill="none" stroke="black" /><path d="M 216.77699279785156,2.1070001125335693 C 218.47369130452475,17.148246248563133, 225.64551544189453,56.758978168169655, 226.95718383789062,92.35447692871094" fill="none" stroke="black" /><path d="M 226.95718383789062,92.35447692871094 C 228.26885223388672,127.94997568925223, 225.03203328450522,195.12574005126953, 224.64700317382812,215.67999267578125" fill="none" stroke="black" /><path d="M 1.562000036239624,1.8760000467300415 C 37.431333343187966,1.9145000576972961, 180.90866657098135,2.0685001015663147, 216.7779998779297,2.1070001125335693" fill="none" stroke="black" /></svg>