<?xml version="1.0" encoding="utf-8" ?>
<svg baseProfile="tiny" height="100%" version="1.2" width="100%" xmlns="http://www.w3.org/2000/svg" xmlns:ev="http://www.w3.org/2001/xml-events" xmlns:xlink="http://www.w3.org/1999/xlink"><defs /><path d="M 109.14299774169922,125.58000183105469 C 116.23163731892903,125.07255299886067, 139.8563143412272,121.1955795288086, 151.67483520507812,122.53530883789062" fill="none" stroke="black" /><path d="M 151.67483520507812,122.53530883789062 C 163.49335606892905,123.87503814697266, 171.38154093424478,126.9073715209961, 180.0541229248047,133.61837768554688" fill="none" stroke="black" /><path d="M 180.0541229248047,133.61837768554688 C 188.7267049153646,140.32938385009766, 198.83473459879556,152.11828104654947, 203.7103271484375,162.8013458251953" fill="none" stroke="black" /><path d="M 203.7103271484375,162.8013458251953 C 208.58591969807944,173.48441060384116, 211.91358439127603,186.65909067789713, 209.30767822265625,197.71676635742188" fill="none" stroke="black" /><path d="M 209.30767822265625,197.71676635742188 C 206.70177205403647,208.77444203694662, 198.34056091308594,220.43905893961588, 188.07489013671875,229.14739990234375" fill="none" stroke="black" /><path d="M 188.07489013671875,229.14739990234375 C 177.80921936035156,237.85574086507162, 160.00813166300455,246.6137491861979, 147.71365356445312,249.96681213378906" fill="none" stroke="black" /><path d="M 147.71365356445312,249.96681213378906 C 135.4191754659017,253.31987508138022, 124.91153208414714,252.70037587483725, 114.30802154541016,249.26577758789062" fill="none" stroke="black" /><path d="M 114.30802154541016,249.26577758789062 C 103.70451100667317,245.831179300944, 91.70099385579427,236.99651082356772, 84.09259033203125,229.35922241210938" fill="none" stroke="black" /><path d="M 84.09259033203125,229.35922241210938 C 76.48418680826823,221.72193400065103, 71.27164840698242,212.95033518473306, 68.65760040283203,203.44204711914062" fill="none" stroke="black" /><path d="M 68.65760040283203,203.44204711914062 C 66.04355239868164,193.9337590535482, 65.88435236612956,182.69424692789713, 68.4083023071289,172.3094940185547" fill="none" stroke="black" /><path d="M 68.4083023071289,172.3094940185547 C 70.93225224812825,161.92474110921225, 77.03535079956055,148.94611231486002, 83.80130004882812,141.13352966308594" fill="none" stroke="black" /><path d="M 83.80130004882812,141.13352966308594 C 90.5672492980957,133.32094701131186, 104.80354817708333,128.05058670043945, 109.00399780273438,125.43399810791016" fill="none" stroke="black" /><path d="M 140.84300231933594,11.85200023651123 C 148.85450236002603,16.4600936571757, 180.90050252278647,34.89246733983358, 188.91200256347656,39.50056076049805" fill="none" stroke="black" /><path d="M 188.91200256347656,39.50056076049805 C 189.031613667806,39.58361371358236, 189.5100580851237,39.915825525919594, 189.62966918945312,39.998878479003906" fill="none" stroke="black" /><path d="M 189.62966918945312,39.998878479003906 C 189.745724995931,40.08239873250326, 190.20994822184244,40.41647974650065, 190.3260040283203,40.5" fill="none" stroke="black" /><path d="M 190.3260040283203,40.5 C 196.15441385904947,34.300368865331016, 219.46805318196616,9.501844326655071, 225.2964630126953,3.302213191986084" fill="none" stroke="black" /><path d="M 225.2964630126953,3.302213191986084 C 225.44800313313803,3.187404672304789, 226.05416361490884,2.7281705935796103, 226.20570373535156,2.6133620738983154" fill="none" stroke="black" /><path d="M 226.20570373535156,2.6133620738983154 C 226.36085764567056,2.4980316758155823, 226.98147328694662,2.0367100834846497, 227.13662719726562,1.9213796854019165" fill="none" stroke="black" /><path d="M 227.13662719726562,1.9213796854019165 C 227.29552205403647,1.805483063062032, 227.93110148111978,1.3418965737024944, 228.08999633789062,1.2259999513626099" fill="none" stroke="black" /><path d="M 228.08999633789062,1.2259999513626099 C 228.0792999267578,1.4183323582013447, 228.03651428222656,2.1876619855562844, 228.02581787109375,2.3799943923950195" fill="none" stroke="black" /><path d="M 228.02581787109375,2.3799943923950195 C 225.87845102945963,10.40991989771525, 217.2889836629232,42.52962191899618, 215.14161682128906,50.559547424316406" fill="none" stroke="black" /><path d="M 215.14161682128906,50.559547424316406 C 215.06388092041016,50.73296038309733, 214.75293731689453,51.42661221822103, 214.67520141601562,51.60002517700195" fill="none" stroke="black" /><path d="M 214.67520141601562,51.60002517700195 C 214.59600067138672,51.77568753560384, 214.2791976928711,52.47833697001139, 214.1999969482422,52.65399932861328" fill="none" stroke="black" /><path d="M 214.1999969482422,52.65399932861328 C 214.35589853922525,52.69331169128418, 214.97950490315756,52.85056114196777, 215.13540649414062,52.88987350463867" fill="none" stroke="black" /><path d="M 215.13540649414062,52.88987350463867 C 222.5253702799479,56.05550320943197, 252.0852254231771,68.71802202860515, 259.4751892089844,71.88365173339844" fill="none" stroke="black" /><path d="M 259.4751892089844,71.88365173339844 C 259.6306406656901,71.92867279052734, 260.252446492513,72.10875701904297, 260.40789794921875,72.15377807617188" fill="none" stroke="black" /><path d="M 260.40789794921875,72.15377807617188 C 260.5635528564453,72.19600296020508, 261.18617248535156,72.36490249633789, 261.3418273925781,72.4071273803711" fill="none" stroke="black" /><path d="M 261.3418273925781,72.4071273803711 C 261.49769083658856,72.44643910725911, 262.1211446126302,72.6036860148112, 262.2770080566406,72.64299774169922" fill="none" stroke="black" /><path d="M 262.2770080566406,72.64299774169922 C 262.1419677734375,72.74531809488933, 261.601806640625,73.15459950764973, 261.4667663574219,73.25691986083984" fill="none" stroke="black" /><path d="M 261.4667663574219,73.25691986083984 C 253.20057423909506,74.75672022501628, 220.13580576578775,80.755921681722, 211.86961364746094,82.25572204589844" fill="none" stroke="black" /><path d="M 211.86961364746094,82.25572204589844 C 211.7021026611328,82.28347778320312, 211.0320587158203,82.39450073242188, 210.8645477294922,82.42225646972656" fill="none" stroke="black" /><path d="M 210.8645477294922,82.42225646972656 C 210.69695536295572,82.45271428426106, 210.0265858968099,82.5745455423991, 209.85899353027344,82.6050033569336" fill="none" stroke="black" /><path d="M 209.85899353027344,82.6050033569336 C 209.07701619466147,91.62197748819987, 205.94910685221353,127.68987401326497, 205.16712951660156,136.70684814453125" fill="none" stroke="black" /><path d="M 205.16712951660156,136.70684814453125 C 205.17453257242838,136.85579681396484, 205.2041447957357,137.45159149169922, 205.2115478515625,137.6005401611328" fill="none" stroke="black" /><path d="M 205.2115478515625,137.6005401611328 C 205.21998087565103,137.74669647216797, 205.25371297200522,138.3313217163086, 205.26214599609375,138.47747802734375" fill="none" stroke="black" /><path d="M 205.26214599609375,138.47747802734375 C 205.27162170410156,138.62073262532553, 205.3095245361328,139.1937510172526, 205.31900024414062,139.33700561523438" fill="none" stroke="black" /><path d="M 205.31900024414062,139.33700561523438 C 205.22956339518228,139.21427154541016, 204.87181599934897,138.72333526611328, 204.78237915039062,138.60060119628906" fill="none" stroke="black" /><path d="M 204.78237915039062,138.60060119628906 C 200.83741505940756,130.43574905395508, 185.05755869547525,97.77634048461914, 181.1125946044922,89.61148834228516" fill="none" stroke="black" /><path d="M 181.1125946044922,89.61148834228516 C 181.08333333333334,89.46106847127278, 180.9662882486979,88.85938898722331, 180.93702697753906,88.70896911621094" fill="none" stroke="black" /><path d="M 180.93702697753906,88.70896911621094 C 180.9103546142578,88.5596415201823, 180.8036651611328,87.9623311360677, 180.77699279785156,87.81300354003906" fill="none" stroke="black" /><path d="M 180.77699279785156,87.81300354003906 C 172.3984400431315,89.5420405069987, 138.8842290242513,96.45818837483723, 130.50567626953125,98.18722534179688" fill="none" stroke="black" /><path d="M 130.50567626953125,98.18722534179688 C 130.3354949951172,98.24103037516277, 129.65476989746094,98.4562505086263, 129.48458862304688,98.51005554199219" fill="none" stroke="black" /><path d="M 129.48458862304688,98.51005554199219 C 129.31328837076822,98.56361770629883, 128.62808736165366,98.77786636352539, 128.456787109375,98.83142852783203" fill="none" stroke="black" /><path d="M 128.456787109375,98.83142852783203 C 128.2843221028646,98.88469060262044, 127.59446207682292,99.0977389017741, 127.4219970703125,99.1510009765625" fill="none" stroke="black" /><path d="M 127.4219970703125,99.1510009765625 C 127.51526387532552,99.00711441040039, 127.88833109537761,98.43156814575195, 127.98159790039062,98.28768157958984" fill="none" stroke="black" /><path d="M 127.98159790039062,98.28768157958984 C 134.35861206054688,91.78927548726399, 159.86666870117188,65.79565111796062, 166.24368286132812,59.297245025634766" fill="none" stroke="black" /><path d="M 166.24368286132812,59.297245025634766 C 166.32599894205728,59.19092051188151, 166.65526326497397,58.76562245686849, 166.73757934570312,58.659297943115234" fill="none" stroke="black" /><path d="M 166.73757934570312,58.659297943115234 C 162.42198181152344,50.857248306274414, 145.1595916748047,19.649049758911133, 140.843994140625,11.847000122070312" fill="none" stroke="black" /><path d="M 7.980000019073486,0.8399999737739563 C 24.765208959579468,1.8710359036922455, 91.9060447216034,5.995179623365402, 108.69125366210938,7.026215553283691" fill="none" stroke="black" /><path d="M 108.69125366210938,7.026215553283691 C 108.85837809244792,7.045679648717244, 109.52687581380208,7.123536030451457, 109.69400024414062,7.14300012588501" fill="none" stroke="black" /><path d="M 109.69400024414062,7.14300012588501 C 109.9081662495931,7.212500095367432, 110.764830271403,7.490499973297119, 110.97899627685547,7.559999942779541" fill="none" stroke="black" /><path d="M 110.97899627685547,7.559999942779541 C 110.10499699910481,25.616333723068237, 106.60899988810222,97.84166884422302, 105.73500061035156,115.89800262451172" fill="none" stroke="black" /><path d="M 105.73500061035156,115.89800262451172 C 105.70400110880534,116.15125274658203, 105.58000310262044,117.16425323486328, 105.54900360107422,117.4175033569336" fill="none" stroke="black" /><path d="M 105.54900360107422,117.4175033569336 C 88.9336462020874,117.1276372273763, 22.472216606140137,115.96817270914714, 5.85685920715332,115.67830657958984" fill="none" stroke="black" /><path d="M 5.85685920715332,115.67830657958984 C 5.690382639567058,115.65258916219075, 5.024476369222005,115.5497194925944, 4.857999801635742,115.52400207519531" fill="none" stroke="black" /><path d="M 4.857999801635742,115.52400207519531 C 4.51366651058197,115.39166895548503, 3.1363333463668823,114.86233647664388, 2.7920000553131104,114.7300033569336" fill="none" stroke="black" /><path d="M 2.7920000553131104,114.7300033569336 C 2.959621707598368,96.24056649208069, 3.6301083167394004,22.282819032669067, 3.797729969024658,3.793382167816162" fill="none" stroke="black" /><path d="M 3.797729969024658,3.793382167816162 C 3.822734077771505,3.6258488098780313, 3.9227505127588906,2.9557153781255088, 3.9477546215057373,2.788182020187378" fill="none" stroke="black" /><path d="M 3.9477546215057373,2.788182020187378 C 3.9997955560684204,2.453318347533544, 3.4679593642552695,1.0075303117434184, 4.260000228881836,0.7789999842643738" fill="none" stroke="black" /><path d="M 4.260000228881836,0.7789999842643738 C 5.052041093508403,0.5504696567853292, 7.959999879201253,1.310666710138321, 8.699999809265137,1.4170000553131104" fill="none" stroke="black" /></svg>